<svg width="1584" height="396" viewBox="0 0 1584 396" fill="none" xmlns="http://www.w3.org/2000/svg">
<g clip-path="url(#clip0_6_4993)">
<rect width="1584" height="396" fill="#F2F2F2"/>
<g clip-path="url(#clip1_6_4993)">
<path d="M1248.9 389.5H1241.6V396.8H1248.9V389.5Z" fill="#333333"/>
<path d="M1297 389.5H1289.7V396.8H1297V389.5Z" fill="#333333"/>
<path d="M1321 389.5H1313.7V396.8H1321V389.5Z" fill="#333333"/>
<path d="M1333 389.5H1325.7V396.8H1333V389.5Z" fill="#333333"/>
<path d="M1357.1 389.5H1349.8V396.8H1357.1V389.5Z" fill="#333333"/>
<path d="M1393.1 389.5H1385.8V396.8H1393.1V389.5Z" fill="#333333"/>
<path d="M1405.1 389.5H1397.8V396.8H1405.1V389.5Z" fill="#333333"/>
<path d="M1417.1 389.5H1409.8V396.8H1417.1V389.5Z" fill="#333333"/>
<path d="M1453.2 389.5H1445.9V396.8H1453.2V389.5Z" fill="#333333"/>
<path d="M1513.2 389.5H1505.9V396.8H1513.2V389.5Z" fill="#333333"/>
<path d="M1537.3 389.5H1530V396.8H1537.3V389.5Z" fill="#333333"/>
<path d="M1549.3 389.5H1542V396.8H1549.3V389.5Z" fill="#333333"/>
<path d="M1561.3 389.5H1554V396.8H1561.3V389.5Z" fill="#333333"/>
<path d="M1573.3 389.5H1566V396.8H1573.3V389.5Z" fill="#333333"/>
<path d="M1585.3 389.5H1578V396.8H1585.3V389.5Z" fill="#333333"/>
<path d="M1236.9 377.5H1229.6V384.8H1236.9V377.5Z" fill="#333333"/>
<path d="M1248.9 377.5H1241.6V384.8H1248.9V377.5Z" fill="#333333"/>
<path d="M1260.9 377.5H1253.6V384.8H1260.9V377.5Z" fill="#333333"/>
<path d="M1285 377.5H1277.7V384.8H1285V377.5Z" fill="#333333"/>
<path d="M1309 377.5H1301.7V384.8H1309V377.5Z" fill="#333333"/>
<path d="M1369.1 377.5H1361.8V384.8H1369.1V377.5Z" fill="#333333"/>
<path d="M1393.1 377.5H1385.8V384.8H1393.1V377.5Z" fill="#333333"/>
<path d="M1429.1 377.5H1421.8V384.8H1429.1V377.5Z" fill="#333333"/>
<path d="M1453.2 377.5H1445.9V384.8H1453.2V377.5Z" fill="#333333"/>
<path d="M1465.2 377.5H1457.9V384.8H1465.2V377.5Z" fill="#333333"/>
<path d="M1489.2 377.5H1481.9V384.8H1489.2V377.5Z" fill="#333333"/>
<path d="M1501.2 377.5H1493.9V384.8H1501.2V377.5Z" fill="#333333"/>
<path d="M1513.2 377.5H1505.9V384.8H1513.2V377.5Z" fill="#333333"/>
<path d="M1525.3 377.5H1518V384.8H1525.3V377.5Z" fill="#333333"/>
<path d="M1537.3 377.5H1530V384.8H1537.3V377.5Z" fill="#333333"/>
<path d="M1549.3 377.5H1542V384.8H1549.3V377.5Z" fill="#333333"/>
<path d="M1585.3 377.5H1578V384.8H1585.3V377.5Z" fill="#333333"/>
<path d="M1381.1 365.4H1373.8V372.7H1381.1V365.4Z" fill="#333333"/>
<path d="M1417.1 365.4H1409.8V372.7H1417.1V365.4Z" fill="#333333"/>
<path d="M1465.2 365.4H1457.9V372.7H1465.2V365.4Z" fill="#333333"/>
<path d="M1489.2 365.4H1481.9V372.7H1489.2V365.4Z" fill="#333333"/>
<path d="M1525.3 365.4H1518V372.7H1525.3V365.4Z" fill="#333333"/>
<path d="M1537.3 365.4H1530V372.7H1537.3V365.4Z" fill="#333333"/>
<path d="M1549.3 365.4H1542V372.7H1549.3V365.4Z" fill="#333333"/>
<path d="M1561.3 365.4H1554V372.7H1561.3V365.4Z" fill="#333333"/>
<path d="M1585.3 365.4H1578V372.7H1585.3V365.4Z" fill="#333333"/>
<path d="M1248.9 353.4H1241.6V360.7H1248.9V353.4Z" fill="#333333"/>
<path d="M1260.9 353.4H1253.6V360.7H1260.9V353.4Z" fill="#333333"/>
<path d="M1285 353.4H1277.7V360.7H1285V353.4Z" fill="#333333"/>
<path d="M1309 353.4H1301.7V360.7H1309V353.4Z" fill="#333333"/>
<path d="M1333 353.4H1325.7V360.7H1333V353.4Z" fill="#333333"/>
<path d="M1369.1 353.4H1361.8V360.7H1369.1V353.4Z" fill="#333333"/>
<path d="M1417.1 353.4H1409.8V360.7H1417.1V353.4Z" fill="#333333"/>
<path d="M1429.1 353.4H1421.8V360.7H1429.1V353.4Z" fill="#333333"/>
<path d="M1453.2 353.4H1445.9V360.7H1453.2V353.4Z" fill="#333333"/>
<path d="M1477.2 353.4H1469.9V360.7H1477.2V353.4Z" fill="#333333"/>
<path d="M1489.2 353.4H1481.9V360.7H1489.2V353.4Z" fill="#333333"/>
<path d="M1549.3 353.4H1542V360.7H1549.3V353.4Z" fill="#333333"/>
<path d="M1561.3 353.4H1554V360.7H1561.3V353.4Z" fill="#333333"/>
<path d="M1573.3 353.4H1566V360.7H1573.3V353.4Z" fill="#333333"/>
<path d="M1585.3 353.4H1578V360.7H1585.3V353.4Z" fill="#333333"/>
<path d="M1236.9 341.4H1229.6V348.7H1236.9V341.4Z" fill="#333333"/>
<path d="M1248.9 341.4H1241.6V348.7H1248.9V341.4Z" fill="#333333"/>
<path d="M1260.9 341.4H1253.6V348.7H1260.9V341.4Z" fill="#333333"/>
<path d="M1273 341.4H1265.7V348.7H1273V341.4Z" fill="#333333"/>
<path d="M1345 341.4H1337.7V348.7H1345V341.4Z" fill="#333333"/>
<path d="M1369.1 341.4H1361.8V348.7H1369.1V341.4Z" fill="#333333"/>
<path d="M1417.1 341.4H1409.8V348.7H1417.1V341.4Z" fill="#333333"/>
<path d="M1465.2 341.4H1457.9V348.7H1465.2V341.4Z" fill="#333333"/>
<path d="M1501.2 341.4H1493.9V348.7H1501.2V341.4Z" fill="#333333"/>
<path d="M1513.2 341.4H1505.9V348.7H1513.2V341.4Z" fill="#333333"/>
<path d="M1525.3 341.4H1518V348.7H1525.3V341.4Z" fill="#333333"/>
<path d="M1537.3 341.4H1530V348.7H1537.3V341.4Z" fill="#333333"/>
<path d="M1549.3 341.4H1542V348.7H1549.3V341.4Z" fill="#333333"/>
<path d="M1561.3 341.4H1554V348.7H1561.3V341.4Z" fill="#333333"/>
<path d="M1573.3 341.4H1566V348.7H1573.3V341.4Z" fill="#333333"/>
<path d="M1585.3 341.4H1578V348.7H1585.3V341.4Z" fill="#333333"/>
<path d="M1357.1 329.4H1349.8V336.7H1357.1V329.4Z" fill="#333333"/>
<path d="M1393.1 329.4H1385.8V336.7H1393.1V329.4Z" fill="#333333"/>
<path d="M1417.1 329.4H1409.8V336.7H1417.1V329.4Z" fill="#333333"/>
<path d="M1441.2 329.4H1433.9V336.7H1441.2V329.4Z" fill="#333333"/>
<path d="M1513.2 329.4H1505.9V336.7H1513.2V329.4Z" fill="#333333"/>
<path d="M1525.3 329.4H1518V336.7H1525.3V329.4Z" fill="#333333"/>
<path d="M1537.3 329.4H1530V336.7H1537.3V329.4Z" fill="#333333"/>
<path d="M1549.3 329.4H1542V336.7H1549.3V329.4Z" fill="#333333"/>
<path d="M1561.3 329.4H1554V336.7H1561.3V329.4Z" fill="#333333"/>
<path d="M1573.3 329.4H1566V336.7H1573.3V329.4Z" fill="#333333"/>
<path d="M1585.3 329.4H1578V336.7H1585.3V329.4Z" fill="#333333"/>
<path d="M1164.8 317.4H1157.5V324.7H1164.8V317.4Z" fill="#333333"/>
<path d="M1200.9 317.4H1193.6V324.7H1200.9V317.4Z" fill="#333333"/>
<path d="M1236.9 317.4H1229.6V324.7H1236.9V317.4Z" fill="#333333"/>
<path d="M1260.9 317.4H1253.6V324.7H1260.9V317.4Z" fill="#333333"/>
<path d="M1309 317.4H1301.7V324.7H1309V317.4Z" fill="#333333"/>
<path d="M1321 317.4H1313.7V324.7H1321V317.4Z" fill="#333333"/>
<path d="M1345 317.4H1337.7V324.7H1345V317.4Z" fill="#333333"/>
<path d="M1381.1 317.4H1373.8V324.7H1381.1V317.4Z" fill="#333333"/>
<path d="M1393.1 317.4H1385.8V324.7H1393.1V317.4Z" fill="#333333"/>
<path d="M1429.1 317.4H1421.8V324.7H1429.1V317.4Z" fill="#333333"/>
<path d="M1441.2 317.4H1433.9V324.7H1441.2V317.4Z" fill="#333333"/>
<path d="M1453.2 317.4H1445.9V324.7H1453.2V317.4Z" fill="#333333"/>
<path d="M1477.2 317.4H1469.9V324.7H1477.2V317.4Z" fill="#333333"/>
<path d="M1489.2 317.4H1481.9V324.7H1489.2V317.4Z" fill="#333333"/>
<path d="M1513.2 317.4H1505.9V324.7H1513.2V317.4Z" fill="#333333"/>
<path d="M1525.3 317.4H1518V324.7H1525.3V317.4Z" fill="#333333"/>
<path d="M1537.3 317.4H1530V324.7H1537.3V317.4Z" fill="#333333"/>
<path d="M1573.3 317.4H1566V324.7H1573.3V317.4Z" fill="#333333"/>
<path d="M1200.9 305.4H1193.6V312.7H1200.9V305.4Z" fill="#333333"/>
<path d="M1212.9 305.4H1205.6V312.7H1212.9V305.4Z" fill="#333333"/>
<path d="M1224.9 305.4H1217.6V312.7H1224.9V305.4Z" fill="#333333"/>
<path d="M1248.9 305.4H1241.6V312.7H1248.9V305.4Z" fill="#333333"/>
<path d="M1260.9 305.4H1253.6V312.7H1260.9V305.4Z" fill="#333333"/>
<path d="M1273 305.4H1265.7V312.7H1273V305.4Z" fill="#333333"/>
<path d="M1297 305.4H1289.7V312.7H1297V305.4Z" fill="#333333"/>
<path d="M1333 305.4H1325.7V312.7H1333V305.4Z" fill="#333333"/>
<path d="M1345 305.4H1337.7V312.7H1345V305.4Z" fill="#333333"/>
<path d="M1369.1 305.4H1361.8V312.7H1369.1V305.4Z" fill="#333333"/>
<path d="M1393.1 305.4H1385.8V312.7H1393.1V305.4Z" fill="#333333"/>
<path d="M1405.1 305.4H1397.8V312.7H1405.1V305.4Z" fill="#333333"/>
<path d="M1429.1 305.4H1421.8V312.7H1429.1V305.4Z" fill="#333333"/>
<path d="M1453.2 305.4H1445.9V312.7H1453.2V305.4Z" fill="#333333"/>
<path d="M1465.2 305.4H1457.9V312.7H1465.2V305.4Z" fill="#333333"/>
<path d="M1477.2 305.4H1469.9V312.7H1477.2V305.4Z" fill="#333333"/>
<path d="M1489.2 305.4H1481.9V312.7H1489.2V305.4Z" fill="#333333"/>
<path d="M1501.2 305.4H1493.9V312.7H1501.2V305.4Z" fill="#333333"/>
<path d="M1513.2 305.4H1505.9V312.7H1513.2V305.4Z" fill="#333333"/>
<path d="M1525.3 305.4H1518V312.7H1525.3V305.4Z" fill="#333333"/>
<path d="M1537.3 305.4H1530V312.7H1537.3V305.4Z" fill="#333333"/>
<path d="M1549.3 305.4H1542V312.7H1549.3V305.4Z" fill="#333333"/>
<path d="M1561.3 305.4H1554V312.7H1561.3V305.4Z" fill="#333333"/>
<path d="M1573.3 305.4H1566V312.7H1573.3V305.4Z" fill="#333333"/>
<path d="M1585.3 305.4H1578V312.7H1585.3V305.4Z" fill="#333333"/>
<path d="M1297 293.4H1289.7V300.7H1297V293.4Z" fill="#333333"/>
<path d="M1309 293.4H1301.7V300.7H1309V293.4Z" fill="#333333"/>
<path d="M1321 293.4H1313.7V300.7H1321V293.4Z" fill="#333333"/>
<path d="M1333 293.4H1325.7V300.7H1333V293.4Z" fill="#333333"/>
<path d="M1369.1 293.4H1361.8V300.7H1369.1V293.4Z" fill="#333333"/>
<path d="M1381.1 293.4H1373.8V300.7H1381.1V293.4Z" fill="#333333"/>
<path d="M1393.1 293.4H1385.8V300.7H1393.1V293.4Z" fill="#333333"/>
<path d="M1405.1 293.4H1397.8V300.7H1405.1V293.4Z" fill="#333333"/>
<path d="M1417.1 293.4H1409.8V300.7H1417.1V293.4Z" fill="#333333"/>
<path d="M1429.1 293.4H1421.8V300.7H1429.1V293.4Z" fill="#333333"/>
<path d="M1441.2 293.4H1433.9V300.7H1441.2V293.4Z" fill="#333333"/>
<path d="M1453.2 293.4H1445.9V300.7H1453.2V293.4Z" fill="#333333"/>
<path d="M1465.2 293.4H1457.9V300.7H1465.2V293.4Z" fill="#333333"/>
<path d="M1477.2 293.4H1469.9V300.7H1477.2V293.4Z" fill="#333333"/>
<path d="M1489.2 293.4H1481.9V300.7H1489.2V293.4Z" fill="#333333"/>
<path d="M1501.2 293.4H1493.9V300.7H1501.2V293.4Z" fill="#333333"/>
<path d="M1513.2 293.4H1505.9V300.7H1513.2V293.4Z" fill="#333333"/>
<path d="M1525.3 293.4H1518V300.7H1525.3V293.4Z" fill="#333333"/>
<path d="M1537.3 293.4H1530V300.7H1537.3V293.4Z" fill="#333333"/>
<path d="M1549.3 293.4H1542V300.7H1549.3V293.4Z" fill="#333333"/>
<path d="M1561.3 293.4H1554V300.7H1561.3V293.4Z" fill="#333333"/>
<path d="M1573.3 293.4H1566V300.7H1573.3V293.4Z" fill="#333333"/>
<path d="M1585.3 293.4H1578V300.7H1585.3V293.4Z" fill="#333333"/>
<path d="M1248.9 281.3H1241.6V288.6H1248.9V281.3Z" fill="#333333"/>
<path d="M1260.9 281.3H1253.6V288.6H1260.9V281.3Z" fill="#333333"/>
<path d="M1309 281.3H1301.7V288.6H1309V281.3Z" fill="#333333"/>
<path d="M1321 281.3H1313.7V288.6H1321V281.3Z" fill="#333333"/>
<path d="M1333 281.3H1325.7V288.6H1333V281.3Z" fill="#333333"/>
<path d="M1345 281.3H1337.7V288.6H1345V281.3Z" fill="#333333"/>
<path d="M1357.1 281.3H1349.8V288.6H1357.1V281.3Z" fill="#333333"/>
<path d="M1369.1 281.3H1361.8V288.6H1369.1V281.3Z" fill="#333333"/>
<path d="M1381.1 281.3H1373.8V288.6H1381.1V281.3Z" fill="#333333"/>
<path d="M1393.1 281.3H1385.8V288.6H1393.1V281.3Z" fill="#333333"/>
<path d="M1405.1 281.3H1397.8V288.6H1405.1V281.3Z" fill="#333333"/>
<path d="M1417.1 281.3H1409.8V288.6H1417.1V281.3Z" fill="#333333"/>
<path d="M1429.1 281.3H1421.8V288.6H1429.1V281.3Z" fill="#333333"/>
<path d="M1441.2 281.3H1433.9V288.6H1441.2V281.3Z" fill="#333333"/>
<path d="M1453.2 281.3H1445.9V288.6H1453.2V281.3Z" fill="#333333"/>
<path d="M1477.2 281.3H1469.9V288.6H1477.2V281.3Z" fill="#333333"/>
<path d="M1489.2 281.3H1481.9V288.6H1489.2V281.3Z" fill="#333333"/>
<path d="M1501.2 281.3H1493.9V288.6H1501.2V281.3Z" fill="#333333"/>
<path d="M1513.2 281.3H1505.9V288.6H1513.2V281.3Z" fill="#333333"/>
<path d="M1525.3 281.3H1518V288.6H1525.3V281.3Z" fill="#333333"/>
<path d="M1561.3 281.3H1554V288.6H1561.3V281.3Z" fill="#333333"/>
<path d="M1573.3 281.3H1566V288.6H1573.3V281.3Z" fill="#333333"/>
<path d="M1585.3 281.3H1578V288.6H1585.3V281.3Z" fill="#333333"/>
<path d="M1104.8 269.3H1097.5V276.6H1104.8V269.3Z" fill="#333333"/>
<path d="M1116.8 269.3H1109.5V276.6H1116.8V269.3Z" fill="#333333"/>
<path d="M1128.8 269.3H1121.5V276.6H1128.8V269.3Z" fill="#333333"/>
<path d="M1152.8 269.3H1145.5V276.6H1152.8V269.3Z" fill="#333333"/>
<path d="M1176.9 269.3H1169.6V276.6H1176.9V269.3Z" fill="#333333"/>
<path d="M1200.9 269.3H1193.6V276.6H1200.9V269.3Z" fill="#333333"/>
<path d="M1260.9 269.3H1253.6V276.6H1260.9V269.3Z" fill="#333333"/>
<path d="M1321 269.3H1313.7V276.6H1321V269.3Z" fill="#333333"/>
<path d="M1333 269.3H1325.7V276.6H1333V269.3Z" fill="#333333"/>
<path d="M1345 269.3H1337.7V276.6H1345V269.3Z" fill="#333333"/>
<path d="M1357.1 269.3H1349.8V276.6H1357.1V269.3Z" fill="#333333"/>
<path d="M1369.1 269.3H1361.8V276.6H1369.1V269.3Z" fill="#333333"/>
<path d="M1381.1 269.3H1373.8V276.6H1381.1V269.3Z" fill="#333333"/>
<path d="M1393.1 269.3H1385.8V276.6H1393.1V269.3Z" fill="#333333"/>
<path d="M1405.1 269.3H1397.8V276.6H1405.1V269.3Z" fill="#333333"/>
<path d="M1417.1 269.3H1409.8V276.6H1417.1V269.3Z" fill="#333333"/>
<path d="M1429.1 269.3H1421.8V276.6H1429.1V269.3Z" fill="#333333"/>
<path d="M1453.2 269.3H1445.9V276.6H1453.2V269.3Z" fill="#333333"/>
<path d="M1465.2 269.3H1457.9V276.6H1465.2V269.3Z" fill="#333333"/>
<path d="M1477.2 269.3H1469.9V276.6H1477.2V269.3Z" fill="#333333"/>
<path d="M1489.2 269.3H1481.9V276.6H1489.2V269.3Z" fill="#333333"/>
<path d="M1501.2 269.3H1493.9V276.6H1501.2V269.3Z" fill="#333333"/>
<path d="M1513.2 269.3H1505.9V276.6H1513.2V269.3Z" fill="#333333"/>
<path d="M1525.3 269.3H1518V276.6H1525.3V269.3Z" fill="#333333"/>
<path d="M1537.3 269.3H1530V276.6H1537.3V269.3Z" fill="#333333"/>
<path d="M1549.3 269.3H1542V276.6H1549.3V269.3Z" fill="#333333"/>
<path d="M1561.3 269.3H1554V276.6H1561.3V269.3Z" fill="#333333"/>
<path d="M1573.3 269.3H1566V276.6H1573.3V269.3Z" fill="#333333"/>
<path d="M1585.3 269.3H1578V276.6H1585.3V269.3Z" fill="#333333"/>
<path d="M1068.7 257.3H1061.4V264.6H1068.7V257.3Z" fill="#333333"/>
<path d="M1080.7 257.3H1073.4V264.6H1080.7V257.3Z" fill="#333333"/>
<path d="M1092.8 257.3H1085.5V264.6H1092.8V257.3Z" fill="#333333"/>
<path d="M1104.8 257.3H1097.5V264.6H1104.8V257.3Z" fill="#333333"/>
<path d="M1152.8 257.3H1145.5V264.6H1152.8V257.3Z" fill="#333333"/>
<path d="M1164.8 257.3H1157.5V264.6H1164.8V257.3Z" fill="#333333"/>
<path d="M1248.9 257.3H1241.6V264.6H1248.9V257.3Z" fill="#333333"/>
<path d="M1260.9 257.3H1253.6V264.6H1260.9V257.3Z" fill="#333333"/>
<path d="M1285 257.3H1277.7V264.6H1285V257.3Z" fill="#333333"/>
<path d="M1309 257.3H1301.7V264.6H1309V257.3Z" fill="#333333"/>
<path d="M1333 257.3H1325.7V264.6H1333V257.3Z" fill="#333333"/>
<path d="M1357.1 257.3H1349.8V264.6H1357.1V257.3Z" fill="#333333"/>
<path d="M1381.1 257.3H1373.8V264.6H1381.1V257.3Z" fill="#333333"/>
<path d="M1393.1 257.3H1385.8V264.6H1393.1V257.3Z" fill="#333333"/>
<path d="M1405.1 257.3H1397.8V264.6H1405.1V257.3Z" fill="#333333"/>
<path d="M1453.2 257.3H1445.9V264.6H1453.2V257.3Z" fill="#333333"/>
<path d="M1477.2 257.3H1469.9V264.6H1477.2V257.3Z" fill="#333333"/>
<path d="M1489.2 257.3H1481.9V264.6H1489.2V257.3Z" fill="#333333"/>
<path d="M1513.2 257.3H1505.9V264.6H1513.2V257.3Z" fill="#333333"/>
<path d="M1525.3 257.3H1518V264.6H1525.3V257.3Z" fill="#333333"/>
<path d="M1549.3 257.3H1542V264.6H1549.3V257.3Z" fill="#333333"/>
<path d="M1561.3 257.3H1554V264.6H1561.3V257.3Z" fill="#333333"/>
<path d="M1573.3 257.3H1566V264.6H1573.3V257.3Z" fill="#333333"/>
<path d="M1056.7 245.3H1049.4V252.6H1056.7V245.3Z" fill="#333333"/>
<path d="M1080.7 245.3H1073.4V252.6H1080.7V245.3Z" fill="#333333"/>
<path d="M1104.8 245.3H1097.5V252.6H1104.8V245.3Z" fill="#333333"/>
<path d="M1116.8 245.3H1109.5V252.6H1116.8V245.3Z" fill="#333333"/>
<path d="M1128.8 245.3H1121.5V252.6H1128.8V245.3Z" fill="#333333"/>
<path d="M1140.8 245.3H1133.5V252.6H1140.8V245.3Z" fill="#333333"/>
<path d="M1152.8 245.3H1145.5V252.6H1152.8V245.3Z" fill="#333333"/>
<path d="M1188.9 245.3H1181.6V252.6H1188.9V245.3Z" fill="#333333"/>
<path d="M1200.9 245.3H1193.6V252.6H1200.9V245.3Z" fill="#333333"/>
<path d="M1212.9 245.3H1205.6V252.6H1212.9V245.3Z" fill="#333333"/>
<path d="M1236.9 245.3H1229.6V252.6H1236.9V245.3Z" fill="#333333"/>
<path d="M1248.9 245.3H1241.6V252.6H1248.9V245.3Z" fill="#333333"/>
<path d="M1285 245.3H1277.7V252.6H1285V245.3Z" fill="#333333"/>
<path d="M1333 245.3H1325.7V252.6H1333V245.3Z" fill="#333333"/>
<path d="M1345 245.3H1337.7V252.6H1345V245.3Z" fill="#333333"/>
<path d="M1357.1 245.3H1349.8V252.6H1357.1V245.3Z" fill="#333333"/>
<path d="M1369.1 245.3H1361.8V252.6H1369.1V245.3Z" fill="#333333"/>
<path d="M1381.1 245.3H1373.8V252.6H1381.1V245.3Z" fill="#333333"/>
<path d="M1393.1 245.3H1385.8V252.6H1393.1V245.3Z" fill="#333333"/>
<path d="M1405.1 245.3H1397.8V252.6H1405.1V245.3Z" fill="#333333"/>
<path d="M1429.1 245.3H1421.8V252.6H1429.1V245.3Z" fill="#333333"/>
<path d="M1441.2 245.3H1433.9V252.6H1441.2V245.3Z" fill="#333333"/>
<path d="M1477.2 245.3H1469.9V252.6H1477.2V245.3Z" fill="#333333"/>
<path d="M1489.2 245.3H1481.9V252.6H1489.2V245.3Z" fill="#333333"/>
<path d="M1501.2 245.3H1493.9V252.6H1501.2V245.3Z" fill="#333333"/>
<path d="M1513.2 245.3H1505.9V252.6H1513.2V245.3Z" fill="#333333"/>
<path d="M1525.3 245.3H1518V252.6H1525.3V245.3Z" fill="#333333"/>
<path d="M1549.3 245.3H1542V252.6H1549.3V245.3Z" fill="#333333"/>
<path d="M1561.3 245.3H1554V252.6H1561.3V245.3Z" fill="#333333"/>
<path d="M1573.3 245.3H1566V252.6H1573.3V245.3Z" fill="#333333"/>
<path d="M1585.3 245.3H1578V252.6H1585.3V245.3Z" fill="#333333"/>
<path d="M1273 233.3H1265.7V240.6H1273V233.3Z" fill="#333333"/>
<path d="M1285 233.3H1277.7V240.6H1285V233.3Z" fill="#333333"/>
<path d="M1321 233.3H1313.7V240.6H1321V233.3Z" fill="#333333"/>
<path d="M1345 233.3H1337.7V240.6H1345V233.3Z" fill="#333333"/>
<path d="M1369.1 233.3H1361.8V240.6H1369.1V233.3Z" fill="#333333"/>
<path d="M1393.1 233.3H1385.8V240.6H1393.1V233.3Z" fill="#333333"/>
<path d="M1405.1 233.3H1397.8V240.6H1405.1V233.3Z" fill="#333333"/>
<path d="M1417.1 233.3H1409.8V240.6H1417.1V233.3Z" fill="#333333"/>
<path d="M1429.1 233.3H1421.8V240.6H1429.1V233.3Z" fill="#333333"/>
<path d="M1441.2 233.3H1433.9V240.6H1441.2V233.3Z" fill="#333333"/>
<path d="M1453.2 233.3H1445.9V240.6H1453.2V233.3Z" fill="#333333"/>
<path d="M1465.2 233.3H1457.9V240.6H1465.2V233.3Z" fill="#333333"/>
<path d="M1477.2 233.3H1469.9V240.6H1477.2V233.3Z" fill="#333333"/>
<path d="M1489.2 233.3H1481.9V240.6H1489.2V233.3Z" fill="#333333"/>
<path d="M1501.2 233.3H1493.9V240.6H1501.2V233.3Z" fill="#333333"/>
<path d="M1537.3 233.3H1530V240.6H1537.3V233.3Z" fill="#333333"/>
<path d="M1549.3 233.3H1542V240.6H1549.3V233.3Z" fill="#333333"/>
<path d="M1561.3 233.3H1554V240.6H1561.3V233.3Z" fill="#333333"/>
<path d="M1573.3 233.3H1566V240.6H1573.3V233.3Z" fill="#333333"/>
<path d="M1585.3 233.3H1578V240.6H1585.3V233.3Z" fill="#333333"/>
<path d="M1260.9 221.3H1253.6V228.6H1260.9V221.3Z" fill="#333333"/>
<path d="M1285 221.3H1277.7V228.6H1285V221.3Z" fill="#333333"/>
<path d="M1297 221.3H1289.7V228.6H1297V221.3Z" fill="#333333"/>
<path d="M1309 221.3H1301.7V228.6H1309V221.3Z" fill="#333333"/>
<path d="M1333 221.3H1325.7V228.6H1333V221.3Z" fill="#333333"/>
<path d="M1345 221.3H1337.7V228.6H1345V221.3Z" fill="#333333"/>
<path d="M1369.1 221.3H1361.8V228.6H1369.1V221.3Z" fill="#333333"/>
<path d="M1381.1 221.3H1373.8V228.6H1381.1V221.3Z" fill="#333333"/>
<path d="M1405.1 221.3H1397.8V228.6H1405.1V221.3Z" fill="#333333"/>
<path d="M1417.1 221.3H1409.8V228.6H1417.1V221.3Z" fill="#333333"/>
<path d="M1453.2 221.3H1445.9V228.6H1453.2V221.3Z" fill="#333333"/>
<path d="M1465.2 221.3H1457.9V228.6H1465.2V221.3Z" fill="#333333"/>
<path d="M1477.2 221.3H1469.9V228.6H1477.2V221.3Z" fill="#333333"/>
<path d="M1489.2 221.3H1481.9V228.6H1489.2V221.3Z" fill="#333333"/>
<path d="M1501.2 221.3H1493.9V228.6H1501.2V221.3Z" fill="#333333"/>
<path d="M1513.2 221.3H1505.9V228.6H1513.2V221.3Z" fill="#333333"/>
<path d="M1525.3 221.3H1518V228.6H1525.3V221.3Z" fill="#333333"/>
<path d="M1537.3 221.3H1530V228.6H1537.3V221.3Z" fill="#333333"/>
<path d="M1549.3 221.3H1542V228.6H1549.3V221.3Z" fill="#333333"/>
<path d="M1561.3 221.3H1554V228.6H1561.3V221.3Z" fill="#333333"/>
<path d="M1573.3 221.3H1566V228.6H1573.3V221.3Z" fill="#333333"/>
<path d="M1585.3 221.3H1578V228.6H1585.3V221.3Z" fill="#333333"/>
<path d="M996.6 209.3H989.3V216.6H996.6V209.3Z" fill="#333333"/>
<path d="M1044.7 209.3H1037.4V216.6H1044.7V209.3Z" fill="#333333"/>
<path d="M1056.7 209.3H1049.4V216.6H1056.7V209.3Z" fill="#333333"/>
<path d="M1092.8 209.3H1085.5V216.6H1092.8V209.3Z" fill="#333333"/>
<path d="M1128.8 209.3H1121.5V216.6H1128.8V209.3Z" fill="#333333"/>
<path d="M1152.8 209.3H1145.5V216.6H1152.8V209.3Z" fill="#333333"/>
<path d="M1164.8 209.3H1157.5V216.6H1164.8V209.3Z" fill="#333333"/>
<path d="M1212.9 209.3H1205.6V216.6H1212.9V209.3Z" fill="#333333"/>
<path d="M1224.9 209.3H1217.6V216.6H1224.9V209.3Z" fill="#333333"/>
<path d="M1248.9 209.3H1241.6V216.6H1248.9V209.3Z" fill="#333333"/>
<path d="M1260.9 209.3H1253.6V216.6H1260.9V209.3Z" fill="#333333"/>
<path d="M1273 209.3H1265.7V216.6H1273V209.3Z" fill="#333333"/>
<path d="M1285 209.3H1277.7V216.6H1285V209.3Z" fill="#333333"/>
<path d="M1297 209.3H1289.7V216.6H1297V209.3Z" fill="#333333"/>
<path d="M1309 209.3H1301.7V216.6H1309V209.3Z" fill="#333333"/>
<path d="M1357.1 209.3H1349.8V216.6H1357.1V209.3Z" fill="#333333"/>
<path d="M1369.1 209.3H1361.8V216.6H1369.1V209.3Z" fill="#333333"/>
<path d="M1393.1 209.3H1385.8V216.6H1393.1V209.3Z" fill="#333333"/>
<path d="M1405.1 209.3H1397.8V216.6H1405.1V209.3Z" fill="#333333"/>
<path d="M1417.1 209.3H1409.8V216.6H1417.1V209.3Z" fill="#333333"/>
<path d="M1429.1 209.3H1421.8V216.6H1429.1V209.3Z" fill="#333333"/>
<path d="M1453.2 209.3H1445.9V216.6H1453.2V209.3Z" fill="#333333"/>
<path d="M1465.2 209.3H1457.9V216.6H1465.2V209.3Z" fill="#333333"/>
<path d="M1477.2 209.3H1469.9V216.6H1477.2V209.3Z" fill="#333333"/>
<path d="M1489.2 209.3H1481.9V216.6H1489.2V209.3Z" fill="#333333"/>
<path d="M1501.2 209.3H1493.9V216.6H1501.2V209.3Z" fill="#333333"/>
<path d="M1513.2 209.3H1505.9V216.6H1513.2V209.3Z" fill="#333333"/>
<path d="M1525.3 209.3H1518V216.6H1525.3V209.3Z" fill="#333333"/>
<path d="M1537.3 209.3H1530V216.6H1537.3V209.3Z" fill="#333333"/>
<path d="M1549.3 209.3H1542V216.6H1549.3V209.3Z" fill="#333333"/>
<path d="M1561.3 209.3H1554V216.6H1561.3V209.3Z" fill="#333333"/>
<path d="M1573.3 209.3H1566V216.6H1573.3V209.3Z" fill="#333333"/>
<path d="M1585.3 209.3H1578V216.6H1585.3V209.3Z" fill="#333333"/>
<path d="M996.6 197.2H989.3V204.5H996.6V197.2Z" fill="#333333"/>
<path d="M1020.7 197.2H1013.4V204.5H1020.7V197.2Z" fill="#333333"/>
<path d="M1032.7 197.2H1025.4V204.5H1032.7V197.2Z" fill="#333333"/>
<path d="M1104.8 197.2H1097.5V204.5H1104.8V197.2Z" fill="#333333"/>
<path d="M1164.8 197.2H1157.5V204.5H1164.8V197.2Z" fill="#333333"/>
<path d="M1176.9 197.2H1169.6V204.5H1176.9V197.2Z" fill="#333333"/>
<path d="M1200.9 197.2H1193.6V204.5H1200.9V197.2Z" fill="#333333"/>
<path d="M1260.9 197.2H1253.6V204.5H1260.9V197.2Z" fill="#333333"/>
<path d="M1285 197.2H1277.7V204.5H1285V197.2Z" fill="#333333"/>
<path d="M1309 197.2H1301.7V204.5H1309V197.2Z" fill="#333333"/>
<path d="M1369.1 197.2H1361.8V204.5H1369.1V197.2Z" fill="#333333"/>
<path d="M1381.1 197.2H1373.8V204.5H1381.1V197.2Z" fill="#333333"/>
<path d="M1393.1 197.2H1385.8V204.5H1393.1V197.2Z" fill="#333333"/>
<path d="M1405.1 197.2H1397.8V204.5H1405.1V197.2Z" fill="#333333"/>
<path d="M1417.1 197.2H1409.8V204.5H1417.1V197.2Z" fill="#333333"/>
<path d="M1429.1 197.2H1421.8V204.5H1429.1V197.2Z" fill="#333333"/>
<path d="M1453.2 197.2H1445.9V204.5H1453.2V197.2Z" fill="#333333"/>
<path d="M1465.2 197.2H1457.9V204.5H1465.2V197.2Z" fill="#333333"/>
<path d="M1477.2 197.2H1469.9V204.5H1477.2V197.2Z" fill="#333333"/>
<path d="M1489.2 197.2H1481.9V204.5H1489.2V197.2Z" fill="#333333"/>
<path d="M1501.2 197.2H1493.9V204.5H1501.2V197.2Z" fill="#333333"/>
<path d="M1513.2 197.2H1505.9V204.5H1513.2V197.2Z" fill="#333333"/>
<path d="M1525.3 197.2H1518V204.5H1525.3V197.2Z" fill="#333333"/>
<path d="M1537.3 197.2H1530V204.5H1537.3V197.2Z" fill="#333333"/>
<path d="M1549.3 197.2H1542V204.5H1549.3V197.2Z" fill="#333333"/>
<path d="M1188.9 185.2H1181.6V192.5H1188.9V185.2Z" fill="#333333"/>
<path d="M1200.9 185.2H1193.6V192.5H1200.9V185.2Z" fill="#333333"/>
<path d="M1212.9 185.2H1205.6V192.5H1212.9V185.2Z" fill="#333333"/>
<path d="M1224.9 185.2H1217.6V192.5H1224.9V185.2Z" fill="#333333"/>
<path d="M1248.9 185.2H1241.6V192.5H1248.9V185.2Z" fill="#333333"/>
<path d="M1260.9 185.2H1253.6V192.5H1260.9V185.2Z" fill="#333333"/>
<path d="M1333 185.2H1325.7V192.5H1333V185.2Z" fill="#333333"/>
<path d="M1357.1 185.2H1349.8V192.5H1357.1V185.2Z" fill="#333333"/>
<path d="M1381.1 185.2H1373.8V192.5H1381.1V185.2Z" fill="#333333"/>
<path d="M1393.1 185.2H1385.8V192.5H1393.1V185.2Z" fill="#333333"/>
<path d="M1405.1 185.2H1397.8V192.5H1405.1V185.2Z" fill="#333333"/>
<path d="M1429.1 185.2H1421.8V192.5H1429.1V185.2Z" fill="#333333"/>
<path d="M1441.2 185.2H1433.9V192.5H1441.2V185.2Z" fill="#333333"/>
<path d="M1465.2 185.2H1457.9V192.5H1465.2V185.2Z" fill="#333333"/>
<path d="M1477.2 185.2H1469.9V192.5H1477.2V185.2Z" fill="#333333"/>
<path d="M1489.2 185.2H1481.9V192.5H1489.2V185.2Z" fill="#333333"/>
<path d="M1501.2 185.2H1493.9V192.5H1501.2V185.2Z" fill="#333333"/>
<path d="M1513.2 185.2H1505.9V192.5H1513.2V185.2Z" fill="#333333"/>
<path d="M1525.3 185.2H1518V192.5H1525.3V185.2Z" fill="#333333"/>
<path d="M1537.3 185.2H1530V192.5H1537.3V185.2Z" fill="#333333"/>
<path d="M1549.3 185.2H1542V192.5H1549.3V185.2Z" fill="#333333"/>
<path d="M1561.3 185.2H1554V192.5H1561.3V185.2Z" fill="#333333"/>
<path d="M1573.3 185.2H1566V192.5H1573.3V185.2Z" fill="#333333"/>
<path d="M1585.3 185.2H1578V192.5H1585.3V185.2Z" fill="#333333"/>
<path d="M1297 173.2H1289.7V180.5H1297V173.2Z" fill="#333333"/>
<path d="M1309 173.2H1301.7V180.5H1309V173.2Z" fill="#333333"/>
<path d="M1321 173.2H1313.7V180.5H1321V173.2Z" fill="#333333"/>
<path d="M1333 173.2H1325.7V180.5H1333V173.2Z" fill="#333333"/>
<path d="M1345 173.2H1337.7V180.5H1345V173.2Z" fill="#333333"/>
<path d="M1357.1 173.2H1349.8V180.5H1357.1V173.2Z" fill="#333333"/>
<path d="M1393.1 173.2H1385.8V180.5H1393.1V173.2Z" fill="#333333"/>
<path d="M1405.1 173.2H1397.8V180.5H1405.1V173.2Z" fill="#333333"/>
<path d="M1417.1 173.2H1409.8V180.5H1417.1V173.2Z" fill="#333333"/>
<path d="M1429.1 173.2H1421.8V180.5H1429.1V173.2Z" fill="#333333"/>
<path d="M1441.2 173.2H1433.9V180.5H1441.2V173.2Z" fill="#333333"/>
<path d="M1453.2 173.2H1445.9V180.5H1453.2V173.2Z" fill="#333333"/>
<path d="M1477.2 173.2H1469.9V180.5H1477.2V173.2Z" fill="#333333"/>
<path d="M1489.2 173.2H1481.9V180.5H1489.2V173.2Z" fill="#333333"/>
<path d="M1501.2 173.2H1493.9V180.5H1501.2V173.2Z" fill="#333333"/>
<path d="M1513.2 173.2H1505.9V180.5H1513.2V173.2Z" fill="#333333"/>
<path d="M1525.3 173.2H1518V180.5H1525.3V173.2Z" fill="#333333"/>
<path d="M1537.3 173.2H1530V180.5H1537.3V173.2Z" fill="#333333"/>
<path d="M1549.3 173.2H1542V180.5H1549.3V173.2Z" fill="#333333"/>
<path d="M1561.3 173.2H1554V180.5H1561.3V173.2Z" fill="#333333"/>
<path d="M1573.3 173.2H1566V180.5H1573.3V173.2Z" fill="#333333"/>
<path d="M1585.3 173.2H1578V180.5H1585.3V173.2Z" fill="#333333"/>
<path d="M1393.1 161.2H1385.8V168.5H1393.1V161.2Z" fill="#333333"/>
<path d="M1405.1 161.2H1397.8V168.5H1405.1V161.2Z" fill="#333333"/>
<path d="M1417.1 161.2H1409.8V168.5H1417.1V161.2Z" fill="#333333"/>
<path d="M1441.2 161.2H1433.9V168.5H1441.2V161.2Z" fill="#333333"/>
<path d="M1453.2 161.2H1445.9V168.5H1453.2V161.2Z" fill="#333333"/>
<path d="M1465.2 161.2H1457.9V168.5H1465.2V161.2Z" fill="#333333"/>
<path d="M1477.2 161.2H1469.9V168.5H1477.2V161.2Z" fill="#333333"/>
<path d="M1489.2 161.2H1481.9V168.5H1489.2V161.2Z" fill="#333333"/>
<path d="M1501.2 161.2H1493.9V168.5H1501.2V161.2Z" fill="#333333"/>
<path d="M1513.2 161.2H1505.9V168.5H1513.2V161.2Z" fill="#333333"/>
<path d="M1525.3 161.2H1518V168.5H1525.3V161.2Z" fill="#333333"/>
<path d="M1537.3 161.2H1530V168.5H1537.3V161.2Z" fill="#333333"/>
<path d="M1549.3 161.2H1542V168.5H1549.3V161.2Z" fill="#333333"/>
<path d="M1561.3 161.2H1554V168.5H1561.3V161.2Z" fill="#333333"/>
<path d="M1573.3 161.2H1566V168.5H1573.3V161.2Z" fill="#333333"/>
<path d="M1585.3 161.2H1578V168.5H1585.3V161.2Z" fill="#333333"/>
<path d="M1056.7 149.2H1049.4V156.5H1056.7V149.2Z" fill="#333333"/>
<path d="M1068.7 149.2H1061.4V156.5H1068.7V149.2Z" fill="#333333"/>
<path d="M1128.8 149.2H1121.5V156.5H1128.8V149.2Z" fill="#333333"/>
<path d="M1140.8 149.2H1133.5V156.5H1140.8V149.2Z" fill="#333333"/>
<path d="M1176.9 149.2H1169.6V156.5H1176.9V149.2Z" fill="#333333"/>
<path d="M1224.9 149.2H1217.6V156.5H1224.9V149.2Z" fill="#333333"/>
<path d="M1236.9 149.2H1229.6V156.5H1236.9V149.2Z" fill="#333333"/>
<path d="M1273 149.2H1265.7V156.5H1273V149.2Z" fill="#333333"/>
<path d="M1321 149.2H1313.7V156.5H1321V149.2Z" fill="#333333"/>
<path d="M1345 149.2H1337.7V156.5H1345V149.2Z" fill="#333333"/>
<path d="M1357.1 149.2H1349.8V156.5H1357.1V149.2Z" fill="#333333"/>
<path d="M1381.1 149.2H1373.8V156.5H1381.1V149.2Z" fill="#333333"/>
<path d="M1393.1 149.2H1385.8V156.5H1393.1V149.2Z" fill="#333333"/>
<path d="M1405.1 149.2H1397.8V156.5H1405.1V149.2Z" fill="#333333"/>
<path d="M1417.1 149.2H1409.8V156.5H1417.1V149.2Z" fill="#333333"/>
<path d="M1429.1 149.2H1421.8V156.5H1429.1V149.2Z" fill="#333333"/>
<path d="M1441.2 149.2H1433.9V156.5H1441.2V149.2Z" fill="#333333"/>
<path d="M1453.2 149.2H1445.9V156.5H1453.2V149.2Z" fill="#333333"/>
<path d="M1465.2 149.2H1457.9V156.5H1465.2V149.2Z" fill="#333333"/>
<path d="M1477.2 149.2H1469.9V156.5H1477.2V149.2Z" fill="#333333"/>
<path d="M1489.2 149.2H1481.9V156.5H1489.2V149.2Z" fill="#333333"/>
<path d="M1501.2 149.2H1493.9V156.5H1501.2V149.2Z" fill="#333333"/>
<path d="M1513.2 149.2H1505.9V156.5H1513.2V149.2Z" fill="#333333"/>
<path d="M1525.3 149.2H1518V156.5H1525.3V149.2Z" fill="#333333"/>
<path d="M1537.3 149.2H1530V156.5H1537.3V149.2Z" fill="#333333"/>
<path d="M1549.3 149.2H1542V156.5H1549.3V149.2Z" fill="#333333"/>
<path d="M1561.3 149.2H1554V156.5H1561.3V149.2Z" fill="#333333"/>
<path d="M1573.3 149.2H1566V156.5H1573.3V149.2Z" fill="#333333"/>
<path d="M1585.3 149.2H1578V156.5H1585.3V149.2Z" fill="#333333"/>
<path d="M1104.8 137.2H1097.5V144.5H1104.8V137.2Z" fill="#333333"/>
<path d="M1116.8 137.2H1109.5V144.5H1116.8V137.2Z" fill="#333333"/>
<path d="M1152.8 137.2H1145.5V144.5H1152.8V137.2Z" fill="#333333"/>
<path d="M1164.8 137.2H1157.5V144.5H1164.8V137.2Z" fill="#333333"/>
<path d="M1200.9 137.2H1193.6V144.5H1200.9V137.2Z" fill="#333333"/>
<path d="M1224.9 137.2H1217.6V144.5H1224.9V137.2Z" fill="#333333"/>
<path d="M1236.9 137.2H1229.6V144.5H1236.9V137.2Z" fill="#333333"/>
<path d="M1248.9 137.2H1241.6V144.5H1248.9V137.2Z" fill="#333333"/>
<path d="M1273 137.2H1265.7V144.5H1273V137.2Z" fill="#333333"/>
<path d="M1285 137.2H1277.7V144.5H1285V137.2Z" fill="#333333"/>
<path d="M1297 137.2H1289.7V144.5H1297V137.2Z" fill="#333333"/>
<path d="M1309 137.2H1301.7V144.5H1309V137.2Z" fill="#333333"/>
<path d="M1369.1 137.2H1361.8V144.5H1369.1V137.2Z" fill="#333333"/>
<path d="M1381.1 137.2H1373.8V144.5H1381.1V137.2Z" fill="#333333"/>
<path d="M1393.1 137.2H1385.8V144.5H1393.1V137.2Z" fill="#333333"/>
<path d="M1405.1 137.2H1397.8V144.5H1405.1V137.2Z" fill="#333333"/>
<path d="M1417.1 137.2H1409.8V144.5H1417.1V137.2Z" fill="#333333"/>
<path d="M1453.2 137.2H1445.9V144.5H1453.2V137.2Z" fill="#333333"/>
<path d="M1477.2 137.2H1469.9V144.5H1477.2V137.2Z" fill="#333333"/>
<path d="M1489.2 137.2H1481.9V144.5H1489.2V137.2Z" fill="#333333"/>
<path d="M1501.2 137.2H1493.9V144.5H1501.2V137.2Z" fill="#333333"/>
<path d="M1513.2 137.2H1505.9V144.5H1513.2V137.2Z" fill="#333333"/>
<path d="M1537.3 137.2H1530V144.5H1537.3V137.2Z" fill="#333333"/>
<path d="M1549.3 137.2H1542V144.5H1549.3V137.2Z" fill="#333333"/>
<path d="M1561.3 137.2H1554V144.5H1561.3V137.2Z" fill="#333333"/>
<path d="M1573.3 137.2H1566V144.5H1573.3V137.2Z" fill="#333333"/>
<path d="M1585.3 137.2H1578V144.5H1585.3V137.2Z" fill="#333333"/>
<path d="M1140.8 125.2H1133.5V132.5H1140.8V125.2Z" fill="#333333"/>
<path d="M1164.8 125.2H1157.5V132.5H1164.8V125.2Z" fill="#333333"/>
<path d="M1176.9 125.2H1169.6V132.5H1176.9V125.2Z" fill="#333333"/>
<path d="M1200.9 125.2H1193.6V132.5H1200.9V125.2Z" fill="#333333"/>
<path d="M1224.9 125.2H1217.6V132.5H1224.9V125.2Z" fill="#333333"/>
<path d="M1236.9 125.2H1229.6V132.5H1236.9V125.2Z" fill="#333333"/>
<path d="M1248.9 125.2H1241.6V132.5H1248.9V125.2Z" fill="#333333"/>
<path d="M1260.9 125.2H1253.6V132.5H1260.9V125.2Z" fill="#333333"/>
<path d="M1309 125.2H1301.7V132.5H1309V125.2Z" fill="#333333"/>
<path d="M1345 125.2H1337.7V132.5H1345V125.2Z" fill="#333333"/>
<path d="M1369.1 125.2H1361.8V132.5H1369.1V125.2Z" fill="#333333"/>
<path d="M1381.1 125.2H1373.8V132.5H1381.1V125.2Z" fill="#333333"/>
<path d="M1393.1 125.2H1385.8V132.5H1393.1V125.2Z" fill="#333333"/>
<path d="M1405.1 125.2H1397.8V132.5H1405.1V125.2Z" fill="#333333"/>
<path d="M1417.1 125.2H1409.8V132.5H1417.1V125.2Z" fill="#333333"/>
<path d="M1429.1 125.2H1421.8V132.5H1429.1V125.2Z" fill="#333333"/>
<path d="M1477.2 125.2H1469.9V132.5H1477.2V125.2Z" fill="#333333"/>
<path d="M1489.2 125.2H1481.9V132.5H1489.2V125.2Z" fill="#333333"/>
<path d="M1501.2 125.2H1493.9V132.5H1501.2V125.2Z" fill="#333333"/>
<path d="M1513.2 125.2H1505.9V132.5H1513.2V125.2Z" fill="#333333"/>
<path d="M1525.3 125.2H1518V132.5H1525.3V125.2Z" fill="#333333"/>
<path d="M1537.3 125.2H1530V132.5H1537.3V125.2Z" fill="#333333"/>
<path d="M1549.3 125.2H1542V132.5H1549.3V125.2Z" fill="#333333"/>
<path d="M1561.3 125.2H1554V132.5H1561.3V125.2Z" fill="#333333"/>
<path d="M1573.3 125.2H1566V132.5H1573.3V125.2Z" fill="#333333"/>
<path d="M1585.3 125.2H1578V132.5H1585.3V125.2Z" fill="#333333"/>
<path d="M1236.9 113.2H1229.6V120.5H1236.9V113.2Z" fill="#333333"/>
<path d="M1248.9 113.2H1241.6V120.5H1248.9V113.2Z" fill="#333333"/>
<path d="M1260.9 113.2H1253.6V120.5H1260.9V113.2Z" fill="#333333"/>
<path d="M1273 113.2H1265.7V120.5H1273V113.2Z" fill="#333333"/>
<path d="M1285 113.2H1277.7V120.5H1285V113.2Z" fill="#333333"/>
<path d="M1321 113.2H1313.7V120.5H1321V113.2Z" fill="#333333"/>
<path d="M1345 113.2H1337.7V120.5H1345V113.2Z" fill="#333333"/>
<path d="M1369.1 113.2H1361.8V120.5H1369.1V113.2Z" fill="#333333"/>
<path d="M1381.1 113.2H1373.8V120.5H1381.1V113.2Z" fill="#333333"/>
<path d="M1393.1 113.2H1385.8V120.5H1393.1V113.2Z" fill="#333333"/>
<path d="M1405.1 113.2H1397.8V120.5H1405.1V113.2Z" fill="#333333"/>
<path d="M1417.1 113.2H1409.8V120.5H1417.1V113.2Z" fill="#333333"/>
<path d="M1453.2 113.2H1445.9V120.5H1453.2V113.2Z" fill="#333333"/>
<path d="M1465.2 113.2H1457.9V120.5H1465.2V113.2Z" fill="#333333"/>
<path d="M1501.2 113.2H1493.9V120.5H1501.2V113.2Z" fill="#333333"/>
<path d="M1513.2 113.2H1505.9V120.5H1513.2V113.2Z" fill="#333333"/>
<path d="M1525.3 113.2H1518V120.5H1525.3V113.2Z" fill="#333333"/>
<path d="M1537.3 113.2H1530V120.5H1537.3V113.2Z" fill="#333333"/>
<path d="M1549.3 113.2H1542V120.5H1549.3V113.2Z" fill="#333333"/>
<path d="M1561.3 113.2H1554V120.5H1561.3V113.2Z" fill="#333333"/>
<path d="M1573.3 113.2H1566V120.5H1573.3V113.2Z" fill="#333333"/>
<path d="M1585.3 113.2H1578V120.5H1585.3V113.2Z" fill="#333333"/>
<path d="M1309 101.1H1301.7V108.4H1309V101.1Z" fill="#333333"/>
<path d="M1321 101.1H1313.7V108.4H1321V101.1Z" fill="#333333"/>
<path d="M1333 101.1H1325.7V108.4H1333V101.1Z" fill="#333333"/>
<path d="M1345 101.1H1337.7V108.4H1345V101.1Z" fill="#333333"/>
<path d="M1357.1 101.1H1349.8V108.4H1357.1V101.1Z" fill="#333333"/>
<path d="M1381.1 101.1H1373.8V108.4H1381.1V101.1Z" fill="#333333"/>
<path d="M1393.1 101.1H1385.8V108.4H1393.1V101.1Z" fill="#333333"/>
<path d="M1417.1 101.1H1409.8V108.4H1417.1V101.1Z" fill="#333333"/>
<path d="M1429.1 101.1H1421.8V108.4H1429.1V101.1Z" fill="#333333"/>
<path d="M1453.2 101.1H1445.9V108.4H1453.2V101.1Z" fill="#333333"/>
<path d="M1465.2 101.1H1457.9V108.4H1465.2V101.1Z" fill="#333333"/>
<path d="M1477.2 101.1H1469.9V108.4H1477.2V101.1Z" fill="#333333"/>
<path d="M1489.2 101.1H1481.9V108.4H1489.2V101.1Z" fill="#333333"/>
<path d="M1501.2 101.1H1493.9V108.4H1501.2V101.1Z" fill="#333333"/>
<path d="M1513.2 101.1H1505.9V108.4H1513.2V101.1Z" fill="#333333"/>
<path d="M1525.3 101.1H1518V108.4H1525.3V101.1Z" fill="#333333"/>
<path d="M1537.3 101.1H1530V108.4H1537.3V101.1Z" fill="#333333"/>
<path d="M1549.3 101.1H1542V108.4H1549.3V101.1Z" fill="#333333"/>
<path d="M1561.3 101.1H1554V108.4H1561.3V101.1Z" fill="#333333"/>
<path d="M1573.3 101.1H1566V108.4H1573.3V101.1Z" fill="#333333"/>
<path d="M1585.3 101.1H1578V108.4H1585.3V101.1Z" fill="#333333"/>
<path d="M1140.8 89.1001H1133.5V96.4001H1140.8V89.1001Z" fill="#333333"/>
<path d="M1164.8 89.1001H1157.5V96.4001H1164.8V89.1001Z" fill="#333333"/>
<path d="M1176.9 89.1001H1169.6V96.4001H1176.9V89.1001Z" fill="#333333"/>
<path d="M1188.9 89.1001H1181.6V96.4001H1188.9V89.1001Z" fill="#333333"/>
<path d="M1200.9 89.1001H1193.6V96.4001H1200.9V89.1001Z" fill="#333333"/>
<path d="M1212.9 89.1001H1205.6V96.4001H1212.9V89.1001Z" fill="#333333"/>
<path d="M1224.9 89.1001H1217.6V96.4001H1224.9V89.1001Z" fill="#333333"/>
<path d="M1236.9 89.1001H1229.6V96.4001H1236.9V89.1001Z" fill="#333333"/>
<path d="M1248.9 89.1001H1241.6V96.4001H1248.9V89.1001Z" fill="#333333"/>
<path d="M1260.9 89.1001H1253.6V96.4001H1260.9V89.1001Z" fill="#333333"/>
<path d="M1273 89.1001H1265.7V96.4001H1273V89.1001Z" fill="#333333"/>
<path d="M1321 89.1001H1313.7V96.4001H1321V89.1001Z" fill="#333333"/>
<path d="M1345 89.1001H1337.7V96.4001H1345V89.1001Z" fill="#333333"/>
<path d="M1369.1 89.1001H1361.8V96.4001H1369.1V89.1001Z" fill="#333333"/>
<path d="M1381.1 89.1001H1373.8V96.4001H1381.1V89.1001Z" fill="#333333"/>
<path d="M1393.1 89.1001H1385.8V96.4001H1393.1V89.1001Z" fill="#333333"/>
<path d="M1405.1 89.1001H1397.8V96.4001H1405.1V89.1001Z" fill="#333333"/>
<path d="M1417.1 89.1001H1409.8V96.4001H1417.1V89.1001Z" fill="#333333"/>
<path d="M1441.2 89.1001H1433.9V96.4001H1441.2V89.1001Z" fill="#333333"/>
<path d="M1453.2 89.1001H1445.9V96.4001H1453.2V89.1001Z" fill="#333333"/>
<path d="M1465.2 89.1001H1457.9V96.4001H1465.2V89.1001Z" fill="#333333"/>
<path d="M1501.2 89.1001H1493.9V96.4001H1501.2V89.1001Z" fill="#333333"/>
<path d="M1525.3 89.1001H1518V96.4001H1525.3V89.1001Z" fill="#333333"/>
<path d="M1537.3 89.1001H1530V96.4001H1537.3V89.1001Z" fill="#333333"/>
<path d="M1549.3 89.1001H1542V96.4001H1549.3V89.1001Z" fill="#333333"/>
<path d="M1561.3 89.1001H1554V96.4001H1561.3V89.1001Z" fill="#333333"/>
<path d="M1573.3 89.1001H1566V96.4001H1573.3V89.1001Z" fill="#333333"/>
<path d="M1585.3 89.1001H1578V96.4001H1585.3V89.1001Z" fill="#333333"/>
<path d="M1008.7 77.1001H1001.4V84.4001H1008.7V77.1001Z" fill="#333333"/>
<path d="M1032.7 77.1001H1025.4V84.4001H1032.7V77.1001Z" fill="#333333"/>
<path d="M1044.7 77.1001H1037.4V84.4001H1044.7V77.1001Z" fill="#333333"/>
<path d="M1068.7 77.1001H1061.4V84.4001H1068.7V77.1001Z" fill="#333333"/>
<path d="M1116.8 77.1001H1109.5V84.4001H1116.8V77.1001Z" fill="#333333"/>
<path d="M1176.9 77.1001H1169.6V84.4001H1176.9V77.1001Z" fill="#333333"/>
<path d="M1224.9 77.1001H1217.6V84.4001H1224.9V77.1001Z" fill="#333333"/>
<path d="M1236.9 77.1001H1229.6V84.4001H1236.9V77.1001Z" fill="#333333"/>
<path d="M1248.9 77.1001H1241.6V84.4001H1248.9V77.1001Z" fill="#333333"/>
<path d="M1260.9 77.1001H1253.6V84.4001H1260.9V77.1001Z" fill="#333333"/>
<path d="M1273 77.1001H1265.7V84.4001H1273V77.1001Z" fill="#333333"/>
<path d="M1285 77.1001H1277.7V84.4001H1285V77.1001Z" fill="#333333"/>
<path d="M1297 77.1001H1289.7V84.4001H1297V77.1001Z" fill="#333333"/>
<path d="M1309 77.1001H1301.7V84.4001H1309V77.1001Z" fill="#333333"/>
<path d="M1321 77.1001H1313.7V84.4001H1321V77.1001Z" fill="#333333"/>
<path d="M1333 77.1001H1325.7V84.4001H1333V77.1001Z" fill="#333333"/>
<path d="M1345 77.1001H1337.7V84.4001H1345V77.1001Z" fill="#333333"/>
<path d="M1357.1 77.1001H1349.8V84.4001H1357.1V77.1001Z" fill="#333333"/>
<path d="M1369.1 77.1001H1361.8V84.4001H1369.1V77.1001Z" fill="#333333"/>
<path d="M1381.1 77.1001H1373.8V84.4001H1381.1V77.1001Z" fill="#333333"/>
<path d="M1393.1 77.1001H1385.8V84.4001H1393.1V77.1001Z" fill="#333333"/>
<path d="M1417.1 77.1001H1409.8V84.4001H1417.1V77.1001Z" fill="#333333"/>
<path d="M1429.1 77.1001H1421.8V84.4001H1429.1V77.1001Z" fill="#333333"/>
<path d="M1441.2 77.1001H1433.9V84.4001H1441.2V77.1001Z" fill="#333333"/>
<path d="M1453.2 77.1001H1445.9V84.4001H1453.2V77.1001Z" fill="#333333"/>
<path d="M1465.2 77.1001H1457.9V84.4001H1465.2V77.1001Z" fill="#333333"/>
<path d="M1489.2 77.1001H1481.9V84.4001H1489.2V77.1001Z" fill="#333333"/>
<path d="M1513.2 77.1001H1505.9V84.4001H1513.2V77.1001Z" fill="#333333"/>
<path d="M1525.3 77.1001H1518V84.4001H1525.3V77.1001Z" fill="#333333"/>
<path d="M1537.3 77.1001H1530V84.4001H1537.3V77.1001Z" fill="#333333"/>
<path d="M1549.3 77.1001H1542V84.4001H1549.3V77.1001Z" fill="#333333"/>
<path d="M1561.3 77.1001H1554V84.4001H1561.3V77.1001Z" fill="#333333"/>
<path d="M1573.3 77.1001H1566V84.4001H1573.3V77.1001Z" fill="#333333"/>
<path d="M1585.3 77.1001H1578V84.4001H1585.3V77.1001Z" fill="#333333"/>
<path d="M1164.8 65.1001H1157.5V72.4001H1164.8V65.1001Z" fill="#333333"/>
<path d="M1188.9 65.1001H1181.6V72.4001H1188.9V65.1001Z" fill="#333333"/>
<path d="M1200.9 65.1001H1193.6V72.4001H1200.9V65.1001Z" fill="#333333"/>
<path d="M1212.9 65.1001H1205.6V72.4001H1212.9V65.1001Z" fill="#333333"/>
<path d="M1224.9 65.1001H1217.6V72.4001H1224.9V65.1001Z" fill="#333333"/>
<path d="M1236.9 65.1001H1229.6V72.4001H1236.9V65.1001Z" fill="#333333"/>
<path d="M1260.9 65.1001H1253.6V72.4001H1260.9V65.1001Z" fill="#333333"/>
<path d="M1273 65.1001H1265.7V72.4001H1273V65.1001Z" fill="#333333"/>
<path d="M1285 65.1001H1277.7V72.4001H1285V65.1001Z" fill="#333333"/>
<path d="M1297 65.1001H1289.7V72.4001H1297V65.1001Z" fill="#333333"/>
<path d="M1309 65.1001H1301.7V72.4001H1309V65.1001Z" fill="#333333"/>
<path d="M1321 65.1001H1313.7V72.4001H1321V65.1001Z" fill="#333333"/>
<path d="M1333 65.1001H1325.7V72.4001H1333V65.1001Z" fill="#333333"/>
<path d="M1345 65.1001H1337.7V72.4001H1345V65.1001Z" fill="#333333"/>
<path d="M1357.1 65.1001H1349.8V72.4001H1357.1V65.1001Z" fill="#333333"/>
<path d="M1381.1 65.1001H1373.8V72.4001H1381.1V65.1001Z" fill="#333333"/>
<path d="M1393.1 65.1001H1385.8V72.4001H1393.1V65.1001Z" fill="#333333"/>
<path d="M1405.1 65.1001H1397.8V72.4001H1405.1V65.1001Z" fill="#333333"/>
<path d="M1417.1 65.1001H1409.8V72.4001H1417.1V65.1001Z" fill="#333333"/>
<path d="M1429.1 65.1001H1421.8V72.4001H1429.1V65.1001Z" fill="#333333"/>
<path d="M1453.2 65.1001H1445.9V72.4001H1453.2V65.1001Z" fill="#333333"/>
<path d="M1465.2 65.1001H1457.9V72.4001H1465.2V65.1001Z" fill="#333333"/>
<path d="M1477.2 65.1001H1469.9V72.4001H1477.2V65.1001Z" fill="#333333"/>
<path d="M1501.2 65.1001H1493.9V72.4001H1501.2V65.1001Z" fill="#333333"/>
<path d="M1513.2 65.1001H1505.9V72.4001H1513.2V65.1001Z" fill="#333333"/>
<path d="M1537.3 65.1001H1530V72.4001H1537.3V65.1001Z" fill="#333333"/>
<path d="M1549.3 65.1001H1542V72.4001H1549.3V65.1001Z" fill="#333333"/>
<path d="M1561.3 65.1001H1554V72.4001H1561.3V65.1001Z" fill="#333333"/>
<path d="M1585.3 65.1001H1578V72.4001H1585.3V65.1001Z" fill="#333333"/>
<path d="M1176.9 53.1001H1169.6V60.4001H1176.9V53.1001Z" fill="#333333"/>
<path d="M1224.9 53.1001H1217.6V60.4001H1224.9V53.1001Z" fill="#333333"/>
<path d="M1248.9 53.1001H1241.6V60.4001H1248.9V53.1001Z" fill="#333333"/>
<path d="M1260.9 53.1001H1253.6V60.4001H1260.9V53.1001Z" fill="#333333"/>
<path d="M1273 53.1001H1265.7V60.4001H1273V53.1001Z" fill="#333333"/>
<path d="M1285 53.1001H1277.7V60.4001H1285V53.1001Z" fill="#333333"/>
<path d="M1297 53.1001H1289.7V60.4001H1297V53.1001Z" fill="#333333"/>
<path d="M1309 53.1001H1301.7V60.4001H1309V53.1001Z" fill="#333333"/>
<path d="M1321 53.1001H1313.7V60.4001H1321V53.1001Z" fill="#333333"/>
<path d="M1333 53.1001H1325.7V60.4001H1333V53.1001Z" fill="#333333"/>
<path d="M1345 53.1001H1337.7V60.4001H1345V53.1001Z" fill="#333333"/>
<path d="M1357.1 53.1001H1349.8V60.4001H1357.1V53.1001Z" fill="#333333"/>
<path d="M1369.1 53.1001H1361.8V60.4001H1369.1V53.1001Z" fill="#333333"/>
<path d="M1417.1 53.1001H1409.8V60.4001H1417.1V53.1001Z" fill="#333333"/>
<path d="M1429.1 53.1001H1421.8V60.4001H1429.1V53.1001Z" fill="#333333"/>
<path d="M1441.2 53.1001H1433.9V60.4001H1441.2V53.1001Z" fill="#333333"/>
<path d="M1453.2 53.1001H1445.9V60.4001H1453.2V53.1001Z" fill="#333333"/>
<path d="M1465.2 53.1001H1457.9V60.4001H1465.2V53.1001Z" fill="#333333"/>
<path d="M1477.2 53.1001H1469.9V60.4001H1477.2V53.1001Z" fill="#333333"/>
<path d="M1489.2 53.1001H1481.9V60.4001H1489.2V53.1001Z" fill="#333333"/>
<path d="M1501.2 53.1001H1493.9V60.4001H1501.2V53.1001Z" fill="#333333"/>
<path d="M1513.2 53.1001H1505.9V60.4001H1513.2V53.1001Z" fill="#333333"/>
<path d="M1525.3 53.1001H1518V60.4001H1525.3V53.1001Z" fill="#333333"/>
<path d="M1537.3 53.1001H1530V60.4001H1537.3V53.1001Z" fill="#333333"/>
<path d="M1549.3 53.1001H1542V60.4001H1549.3V53.1001Z" fill="#333333"/>
<path d="M1561.3 53.1001H1554V60.4001H1561.3V53.1001Z" fill="#333333"/>
<path d="M1585.3 53.1001H1578V60.4001H1585.3V53.1001Z" fill="#333333"/>
<path d="M1080.7 41.1001H1073.4V48.4001H1080.7V41.1001Z" fill="#333333"/>
<path d="M1092.8 41.1001H1085.5V48.4001H1092.8V41.1001Z" fill="#333333"/>
<path d="M1104.8 41.1001H1097.5V48.4001H1104.8V41.1001Z" fill="#333333"/>
<path d="M1128.8 41.1001H1121.5V48.4001H1128.8V41.1001Z" fill="#333333"/>
<path d="M1188.9 41.1001H1181.6V48.4001H1188.9V41.1001Z" fill="#333333"/>
<path d="M1200.9 41.1001H1193.6V48.4001H1200.9V41.1001Z" fill="#333333"/>
<path d="M1212.9 41.1001H1205.6V48.4001H1212.9V41.1001Z" fill="#333333"/>
<path d="M1224.9 41.1001H1217.6V48.4001H1224.9V41.1001Z" fill="#333333"/>
<path d="M1236.9 41.1001H1229.6V48.4001H1236.9V41.1001Z" fill="#333333"/>
<path d="M1248.9 41.1001H1241.6V48.4001H1248.9V41.1001Z" fill="#333333"/>
<path d="M1260.9 41.1001H1253.6V48.4001H1260.9V41.1001Z" fill="#333333"/>
<path d="M1273 41.1001H1265.7V48.4001H1273V41.1001Z" fill="#333333"/>
<path d="M1285 41.1001H1277.7V48.4001H1285V41.1001Z" fill="#333333"/>
<path d="M1297 41.1001H1289.7V48.4001H1297V41.1001Z" fill="#333333"/>
<path d="M1309 41.1001H1301.7V48.4001H1309V41.1001Z" fill="#333333"/>
<path d="M1321 41.1001H1313.7V48.4001H1321V41.1001Z" fill="#333333"/>
<path d="M1333 41.1001H1325.7V48.4001H1333V41.1001Z" fill="#333333"/>
<path d="M1345 41.1001H1337.7V48.4001H1345V41.1001Z" fill="#333333"/>
<path d="M1357.1 41.1001H1349.8V48.4001H1357.1V41.1001Z" fill="#333333"/>
<path d="M1369.1 41.1001H1361.8V48.4001H1369.1V41.1001Z" fill="#333333"/>
<path d="M1381.1 41.1001H1373.8V48.4001H1381.1V41.1001Z" fill="#333333"/>
<path d="M1393.1 41.1001H1385.8V48.4001H1393.1V41.1001Z" fill="#333333"/>
<path d="M1405.1 41.1001H1397.8V48.4001H1405.1V41.1001Z" fill="#333333"/>
<path d="M1417.1 41.1001H1409.8V48.4001H1417.1V41.1001Z" fill="#333333"/>
<path d="M1429.1 41.1001H1421.8V48.4001H1429.1V41.1001Z" fill="#333333"/>
<path d="M1441.2 41.1001H1433.9V48.4001H1441.2V41.1001Z" fill="#333333"/>
<path d="M1465.2 41.1001H1457.9V48.4001H1465.2V41.1001Z" fill="#333333"/>
<path d="M1477.2 41.1001H1469.9V48.4001H1477.2V41.1001Z" fill="#333333"/>
<path d="M1513.2 41.1001H1505.9V48.4001H1513.2V41.1001Z" fill="#333333"/>
<path d="M1525.3 41.1001H1518V48.4001H1525.3V41.1001Z" fill="#333333"/>
<path d="M1537.3 41.1001H1530V48.4001H1537.3V41.1001Z" fill="#333333"/>
<path d="M1549.3 41.1001H1542V48.4001H1549.3V41.1001Z" fill="#333333"/>
<path d="M1561.3 41.1001H1554V48.4001H1561.3V41.1001Z" fill="#333333"/>
<path d="M1573.3 41.1001H1566V48.4001H1573.3V41.1001Z" fill="#333333"/>
<path d="M1585.3 41.1001H1578V48.4001H1585.3V41.1001Z" fill="#333333"/>
<path d="M1248.9 29.1001H1241.6V36.4001H1248.9V29.1001Z" fill="#333333"/>
<path d="M1260.9 29.1001H1253.6V36.4001H1260.9V29.1001Z" fill="#333333"/>
<path d="M1285 29.1001H1277.7V36.4001H1285V29.1001Z" fill="#333333"/>
<path d="M1297 29.1001H1289.7V36.4001H1297V29.1001Z" fill="#333333"/>
<path d="M1321 29.1001H1313.7V36.4001H1321V29.1001Z" fill="#333333"/>
<path d="M1333 29.1001H1325.7V36.4001H1333V29.1001Z" fill="#333333"/>
<path d="M1345 29.1001H1337.7V36.4001H1345V29.1001Z" fill="#333333"/>
<path d="M1369.1 29.1001H1361.8V36.4001H1369.1V29.1001Z" fill="#333333"/>
<path d="M1381.1 29.1001H1373.8V36.4001H1381.1V29.1001Z" fill="#333333"/>
<path d="M1393.1 29.1001H1385.8V36.4001H1393.1V29.1001Z" fill="#333333"/>
<path d="M1405.1 29.1001H1397.8V36.4001H1405.1V29.1001Z" fill="#333333"/>
<path d="M1417.1 29.1001H1409.8V36.4001H1417.1V29.1001Z" fill="#333333"/>
<path d="M1441.2 29.1001H1433.9V36.4001H1441.2V29.1001Z" fill="#333333"/>
<path d="M1453.2 29.1001H1445.9V36.4001H1453.2V29.1001Z" fill="#333333"/>
<path d="M1465.2 29.1001H1457.9V36.4001H1465.2V29.1001Z" fill="#333333"/>
<path d="M1477.2 29.1001H1469.9V36.4001H1477.2V29.1001Z" fill="#333333"/>
<path d="M1489.2 29.1001H1481.9V36.4001H1489.2V29.1001Z" fill="#333333"/>
<path d="M1501.2 29.1001H1493.9V36.4001H1501.2V29.1001Z" fill="#333333"/>
<path d="M1513.2 29.1001H1505.9V36.4001H1513.2V29.1001Z" fill="#333333"/>
<path d="M1525.3 29.1001H1518V36.4001H1525.3V29.1001Z" fill="#333333"/>
<path d="M1537.3 29.1001H1530V36.4001H1537.3V29.1001Z" fill="#333333"/>
<path d="M1549.3 29.1001H1542V36.4001H1549.3V29.1001Z" fill="#333333"/>
<path d="M1561.3 29.1001H1554V36.4001H1561.3V29.1001Z" fill="#333333"/>
<path d="M1573.3 29.1001H1566V36.4001H1573.3V29.1001Z" fill="#333333"/>
<path d="M1585.3 29.1001H1578V36.4001H1585.3V29.1001Z" fill="#333333"/>
<path d="M984.6 17H977.3V24.3H984.6V17Z" fill="#333333"/>
<path d="M772.3 53H765V60.3H772.3V53Z" fill="#333333"/>
<path d="M996.6 17H989.3V24.3H996.6V17Z" fill="#333333"/>
<path d="M1044.7 17H1037.4V24.3H1044.7V17Z" fill="#333333"/>
<path d="M1080.7 17H1073.4V24.3H1080.7V17Z" fill="#333333"/>
<path d="M1092.8 17H1085.5V24.3H1092.8V17Z" fill="#333333"/>
<path d="M1104.8 17H1097.5V24.3H1104.8V17Z" fill="#333333"/>
<path d="M1128.8 17H1121.5V24.3H1128.8V17Z" fill="#333333"/>
<path d="M1140.8 17H1133.5V24.3H1140.8V17Z" fill="#333333"/>
<path d="M1152.8 17H1145.5V24.3H1152.8V17Z" fill="#333333"/>
<path d="M1176.9 17H1169.6V24.3H1176.9V17Z" fill="#333333"/>
<path d="M1188.9 17H1181.6V24.3H1188.9V17Z" fill="#333333"/>
<path d="M1200.9 17H1193.6V24.3H1200.9V17Z" fill="#333333"/>
<path d="M1212.9 17H1205.6V24.3H1212.9V17Z" fill="#333333"/>
<path d="M1224.9 17H1217.6V24.3H1224.9V17Z" fill="#333333"/>
<path d="M1236.9 17H1229.6V24.3H1236.9V17Z" fill="#333333"/>
<path d="M1248.9 17H1241.6V24.3H1248.9V17Z" fill="#333333"/>
<path d="M1260.9 17H1253.6V24.3H1260.9V17Z" fill="#333333"/>
<path d="M1273 17H1265.7V24.3H1273V17Z" fill="#333333"/>
<path d="M1285 17H1277.7V24.3H1285V17Z" fill="#333333"/>
<path d="M1297 17H1289.7V24.3H1297V17Z" fill="#333333"/>
<path d="M1309 17H1301.7V24.3H1309V17Z" fill="#333333"/>
<path d="M1321 17H1313.7V24.3H1321V17Z" fill="#333333"/>
<path d="M1345 17H1337.7V24.3H1345V17Z" fill="#333333"/>
<path d="M1357.1 17H1349.8V24.3H1357.1V17Z" fill="#333333"/>
<path d="M1369.1 17H1361.8V24.3H1369.1V17Z" fill="#333333"/>
<path d="M1393.1 17H1385.8V24.3H1393.1V17Z" fill="#333333"/>
<path d="M1405.1 17H1397.8V24.3H1405.1V17Z" fill="#333333"/>
<path d="M1417.1 17H1409.8V24.3H1417.1V17Z" fill="#333333"/>
<path d="M1429.1 17H1421.8V24.3H1429.1V17Z" fill="#333333"/>
<path d="M1441.2 17H1433.9V24.3H1441.2V17Z" fill="#333333"/>
<path d="M1453.2 17H1445.9V24.3H1453.2V17Z" fill="#333333"/>
<path d="M1465.2 17H1457.9V24.3H1465.2V17Z" fill="#333333"/>
<path d="M1477.2 17H1469.9V24.3H1477.2V17Z" fill="#333333"/>
<path d="M1489.2 17H1481.9V24.3H1489.2V17Z" fill="#333333"/>
<path d="M1501.2 17H1493.9V24.3H1501.2V17Z" fill="#333333"/>
<path d="M1513.2 17H1505.9V24.3H1513.2V17Z" fill="#333333"/>
<path d="M1525.3 17H1518V24.3H1525.3V17Z" fill="#333333"/>
<path d="M1537.3 17H1530V24.3H1537.3V17Z" fill="#333333"/>
<path d="M1549.3 17H1542V24.3H1549.3V17Z" fill="#333333"/>
<path d="M1561.3 17H1554V24.3H1561.3V17Z" fill="#333333"/>
<path d="M1585.3 17H1578V24.3H1585.3V17Z" fill="#333333"/>
<path d="M1056.7 5H1049.4V12.3H1056.7V5Z" fill="#333333"/>
<path d="M1068.7 5H1061.4V12.3H1068.7V5Z" fill="#333333"/>
<path d="M1092.8 5H1085.5V12.3H1092.8V5Z" fill="#333333"/>
<path d="M1116.8 5H1109.5V12.3H1116.8V5Z" fill="#333333"/>
<path d="M1212.9 5H1205.6V12.3H1212.9V5Z" fill="#333333"/>
<path d="M1224.9 5H1217.6V12.3H1224.9V5Z" fill="#333333"/>
<path d="M1248.9 5H1241.6V12.3H1248.9V5Z" fill="#333333"/>
<path d="M1273 5H1265.7V12.3H1273V5Z" fill="#333333"/>
<path d="M1285 5H1277.7V12.3H1285V5Z" fill="#333333"/>
<path d="M1357.1 5H1349.8V12.3H1357.1V5Z" fill="#333333"/>
<path d="M1369.1 5H1361.8V12.3H1369.1V5Z" fill="#333333"/>
<path d="M1381.1 5H1373.8V12.3H1381.1V5Z" fill="#333333"/>
<path d="M1393.1 5H1385.8V12.3H1393.1V5Z" fill="#333333"/>
<path d="M1441.2 5H1433.9V12.3H1441.2V5Z" fill="#333333"/>
<path d="M1453.2 5H1445.9V12.3H1453.2V5Z" fill="#333333"/>
<path d="M1465.2 5H1457.9V12.3H1465.2V5Z" fill="#333333"/>
<path d="M1489.2 5H1481.9V12.3H1489.2V5Z" fill="#333333"/>
<path d="M1501.2 5H1493.9V12.3H1501.2V5Z" fill="#333333"/>
<path d="M1513.2 5H1505.9V12.3H1513.2V5Z" fill="#333333"/>
<path d="M1537.3 5H1530V12.3H1537.3V5Z" fill="#333333"/>
<path d="M1549.3 5H1542V12.3H1549.3V5Z" fill="#333333"/>
<path d="M1561.3 5H1554V12.3H1561.3V5Z" fill="#333333"/>
<path d="M1573.3 5H1566V12.3H1573.3V5Z" fill="#333333"/>
<path d="M1585.3 5H1578V12.3H1585.3V5Z" fill="#333333"/>
<path d="M1393.1 -7H1385.8V0.299999H1393.1V-7Z" fill="#333333"/>
<path d="M1405.1 -7H1397.8V0.299999H1405.1V-7Z" fill="#333333"/>
<path d="M1417.1 -7H1409.8V0.299999H1417.1V-7Z" fill="#333333"/>
<path d="M1429.1 -7H1421.8V0.299999H1429.1V-7Z" fill="#333333"/>
<path d="M1441.2 -7H1433.9V0.299999H1441.2V-7Z" fill="#333333"/>
<path d="M1453.2 -7H1445.9V0.299999H1453.2V-7Z" fill="#333333"/>
<path d="M1501.2 -7H1493.9V0.299999H1501.2V-7Z" fill="#333333"/>
<path d="M1513.2 -7H1505.9V0.299999H1513.2V-7Z" fill="#333333"/>
<path d="M1525.3 -7H1518V0.299999H1525.3V-7Z" fill="#333333"/>
<path d="M1537.3 -7H1530V0.299999H1537.3V-7Z" fill="#333333"/>
<path d="M1561.3 -7H1554V0.299999H1561.3V-7Z" fill="#333333"/>
<path d="M1573.3 -7H1566V0.299999H1573.3V-7Z" fill="#333333"/>
<path d="M1585.3 -7H1578V0.299999H1585.3V-7Z" fill="#333333"/>
<path d="M1084.3 373H1077V380.3H1084.3V373Z" fill="#333333"/>
</g>
<path d="M7.30002 341H0V348.3H7.30002V341Z" fill="#333333"/>
</g>
<defs>
<clipPath id="clip0_6_4993">
<rect width="1584" height="396" fill="white"/>
</clipPath>
<clipPath id="clip1_6_4993">
<rect width="1376.9" height="1016.5" fill="white" transform="translate(689 -19)"/>
</clipPath>
</defs>
</svg>
